<?xml version="1.0" standalone="no"?>
<!DOCTYPE svg PUBLIC "-//W3C//DTD SVG 20010904//EN"
 "http://www.w3.org/TR/2001/REC-SVG-20010904/DTD/svg10.dtd">
<svg version="1.0" xmlns="http://www.w3.org/2000/svg"
 width="319.000000pt" height="307.000000pt" viewBox="0 0 319.000000 307.000000"
 preserveAspectRatio="xMidYMid meet">

<g transform="translate(0.000000,307.000000) scale(0.100000,-0.100000)"
fill="#000000" stroke="none">
<path d="M1430 2853 c-141 -15 -312 -68 -450 -139 -137 -70 -183 -117 -148
-152 20 -20 44 -14 124 34 102 63 218 110 344 142 94 24 124 26 285 26 162 0
191 -2 286 -26 440 -111 786 -447 897 -873 156 -596 -135 -1197 -698 -1446
-298 -132 -665 -132 -967 -1 -292 127 -518 353 -645 646 -57 131 -88 267 -95
421 -11 258 44 480 171 689 48 80 54 104 34 124 -35 35 -82 -12 -152 -148 -92
-180 -133 -337 -142 -545 -15 -341 87 -649 300 -900 200 -237 449 -387 748
-452 118 -25 409 -25 528 1 260 56 476 174 664 362 188 188 306 404 362 664
26 119 26 410 1 528 -118 543 -553 958 -1088 1036 -97 15 -269 19 -359 9z"/>
<path d="M1418 2645 c-104 -17 -296 -78 -344 -111 -19 -13 -49 -31 -67 -40
-54 -28 -178 -134 -252 -215 -152 -170 -236 -349 -272 -584 -34 -224 18 -499
130 -690 172 -293 447 -491 772 -556 89 -18 309 -18 400 0 424 83 764 399 876
815 89 328 15 690 -195 955 -144 182 -318 309 -516 375 -193 64 -350 79 -532
51z m359 -122 c68 -45 101 -163 69 -247 -25 -66 -44 -79 -102 -69 l-49 8 -3
155 c-1 85 0 160 3 168 6 17 44 10 82 -15z m-326 5 c56 -16 114 -70 134 -123
21 -54 17 -148 -8 -172 -15 -16 -27 -7 -157 122 -77 77 -139 144 -137 150 5
13 64 34 101 34 16 1 46 -4 67 -11z m569 -65 c91 -64 125 -161 74 -214 -16
-17 -28 -43 -31 -70 -3 -24 -12 -52 -21 -61 -13 -16 -17 -16 -43 -3 -16 9 -33
24 -39 34 -11 21 -14 313 -3 324 11 12 38 8 63 -10z m-728 -100 c60 -60 114
-116 120 -127 13 -24 -4 -36 -53 -36 -28 0 -45 9 -80 43 -25 23 -79 73 -119
111 l-74 68 27 24 c16 13 38 24 49 24 14 0 61 -39 130 -107z m-177 -90 c57
-54 105 -105 105 -113 0 -8 -16 -26 -35 -39 -40 -27 -19 -38 -179 93 -53 43
-96 81 -96 85 0 18 66 67 92 70 5 1 55 -43 113 -96z m1162 10 c-3 -2 -16 -1
-31 3 -17 4 -26 13 -26 26 0 19 1 19 31 -2 16 -12 28 -24 26 -27z m-1307 -158
c120 -102 117 -95 85 -149 -15 -25 -29 -46 -32 -46 -7 0 -47 22 -53 29 -3 4
-49 42 -102 85 -110 87 -116 101 -66 153 31 32 32 32 57 16 14 -9 64 -49 111
-88z m1365 31 c73 -36 158 -129 181 -198 24 -74 22 -187 -5 -259 -12 -32 -39
-75 -65 -101 l-43 -45 -77 25 c-60 20 -76 29 -72 41 2 9 13 37 23 63 17 45 17
48 0 65 -15 15 -22 16 -49 5 -41 -15 -50 -6 -55 55 l-4 48 52 30 c29 17 57 37
62 46 17 27 -18 100 -78 168 -70 78 -66 96 17 88 34 -3 82 -16 113 -31z m-449
-83 c104 -54 162 -136 189 -265 8 -40 30 -104 47 -143 43 -93 51 -211 19 -295
-29 -76 -89 -142 -174 -192 -40 -23 -99 -65 -131 -95 -92 -82 -132 -98 -251
-98 -119 0 -159 16 -251 98 -32 30 -91 72 -131 95 -78 46 -130 100 -165 171
-19 38 -23 62 -23 146 0 92 3 106 32 170 18 39 40 103 48 143 18 86 43 138 92
193 35 39 109 84 163 99 14 4 126 6 250 6 l225 -2 61 -31z m-1018 -146 c72
-60 132 -115 132 -122 0 -33 -76 -210 -90 -210 -7 0 -22 33 -35 73 -28 89 -87
181 -159 249 -40 38 -53 57 -49 72 7 29 42 63 56 54 7 -4 72 -56 145 -116z
m1291 35 c-11 -8 -21 -12 -23 -11 -28 40 -43 78 -33 89 9 9 20 3 44 -26 33
-37 33 -37 12 -52z m-1475 -143 c49 -54 102 -155 108 -203 2 -20 -3 -32 -18
-42 -18 -13 -24 -11 -60 16 -32 24 -49 29 -91 30 -51 0 -53 1 -53 28 0 24 32
175 45 210 8 21 22 13 69 -39z m1905 -435 c-10 -27 -12 -28 -23 -10 -9 15 -29
43 -80 111 -7 9 9 33 50 80 l59 67 3 -110 c1 -64 -2 -121 -9 -138z m-1923 111
c23 -35 11 -92 -21 -107 -36 -16 -65 12 -65 63 0 65 54 93 86 44z m218 -11
c18 -18 21 -76 6 -105 -17 -30 -57 -24 -75 12 -33 64 23 140 69 93z m1472 -20
c52 -29 101 -84 128 -143 31 -67 29 -189 -4 -254 -28 -56 -57 -90 -73 -84 -7
2 -15 36 -18 80 -7 85 -32 140 -67 145 -16 3 -44 -18 -106 -77 -50 -48 -93
-81 -105 -81 -20 0 -61 32 -61 48 0 4 31 39 68 77 75 77 113 147 132 240 6 33
13 66 16 73 5 16 33 9 90 -24z m-1606 -160 c18 -21 76 -44 112 -44 16 0 43 7
59 16 24 12 34 13 45 3 22 -18 17 -36 -16 -49 -17 -7 -44 -29 -60 -48 -34 -42
-39 -40 -134 35 -66 51 -76 68 -50 88 24 18 29 18 44 -1z m-30 -181 l50 -37
-28 -23 c-15 -12 -29 -22 -32 -23 -3 0 -20 30 -38 66 -37 75 -32 77 48 17z
m358 11 c12 -8 22 -24 22 -34 0 -24 -37 -50 -70 -50 -33 0 -70 26 -70 50 0 24
37 50 70 50 14 0 36 -7 48 -16z m915 -211 c-75 -68 -264 -155 -358 -165 -30
-3 -30 -3 -33 54 -3 64 2 71 77 82 64 10 145 53 213 114 l61 54 43 -49 44 -48
-47 -42z m307 82 c0 -47 4 -59 32 -90 l31 -36 -66 -64 c-168 -161 -396 -266
-609 -282 l-78 -6 0 29 c0 16 -3 46 -6 67 -6 32 -4 37 14 37 41 0 195 51 281
94 102 50 191 119 301 230 41 42 80 76 87 76 9 0 13 -17 13 -55z m-1081 -4
c27 -37 45 -122 37 -174 -8 -56 8 -141 39 -201 14 -27 23 -51 20 -54 -7 -8
-95 16 -112 29 -23 20 -42 103 -41 185 0 62 -5 92 -21 129 l-21 49 32 33 c17
18 35 33 39 33 4 0 17 -13 28 -29z m-315 -22 c31 -25 33 -40 6 -64 -25 -22
-81 -25 -105 -5 -23 19 -15 62 15 77 35 18 53 16 84 -8z m531 -68 l70 -28 3
-161 c2 -150 1 -162 -15 -162 -31 0 -91 58 -117 115 -23 47 -26 67 -26 159 0
58 3 106 8 106 4 0 39 -13 77 -29z m-379 -36 c8 -21 14 -68 14 -120 l0 -86
-28 15 c-40 20 -132 94 -132 106 0 5 17 18 38 30 20 11 47 36 60 55 12 19 25
35 28 35 3 0 12 -16 20 -35z"/>
<path d="M1460 1853 c-64 -23 -162 -123 -183 -187 -21 -63 -22 -178 -1 -239
32 -94 140 -186 243 -206 67 -13 161 -2 214 26 44 22 115 92 143 139 48 82 51
221 7 308 -23 44 -92 115 -142 144 -39 23 -58 27 -141 29 -68 2 -108 -2 -140
-14z m228 -92 c86 -44 132 -120 132 -216 0 -79 -21 -125 -80 -179 -53 -47 -77
-56 -156 -56 -96 0 -173 49 -218 137 -23 46 -21 153 3 201 22 42 72 92 116
115 44 23 156 22 203 -2z"/>
<path d="M654 2469 c-20 -22 -13 -43 19 -63 25 -16 62 24 53 58 -8 32 -45 35
-72 5z"/>
</g>
</svg>
