<?xml version="1.0" standalone="no"?>
<!DOCTYPE svg PUBLIC "-//W3C//DTD SVG 20010904//EN"
 "http://www.w3.org/TR/2001/REC-SVG-20010904/DTD/svg10.dtd">
<svg version="1.0" xmlns="http://www.w3.org/2000/svg"
 width="273.000000pt" height="309.000000pt" viewBox="0 0 273.000000 309.000000"
 preserveAspectRatio="xMidYMid meet">

<g transform="translate(0.000000,309.000000) scale(0.100000,-0.100000)"
fill="#000000" stroke="none">
<path d="M488 2871 c-31 -10 -72 -28 -91 -40 -52 -32 -116 -106 -145 -169
l-27 -57 0 -1035 0 -1035 33 -67 c40 -82 119 -157 200 -190 l57 -23 815 0 815
0 57 23 c81 33 160 108 200 190 l33 67 3 1015 c2 768 0 1026 -9 1060 -24 87
-110 194 -189 235 -87 45 -84 45 -910 44 -730 0 -789 -1 -842 -18z m1694 -68
c61 -28 143 -110 171 -171 l22 -47 0 -1015 0 -1015 -22 -47 c-27 -59 -112
-144 -172 -172 -46 -21 -50 -21 -851 -21 -801 0 -805 0 -851 21 -60 28 -145
113 -172 172 l-22 47 0 1015 0 1015 22 47 c24 52 105 138 155 164 18 9 55 20
83 24 27 5 396 7 820 6 769 -1 770 -1 817 -23z"/>
<path d="M550 2731 c-78 -25 -148 -90 -168 -160 -8 -25 -12 -138 -12 -330 0
-271 1 -295 20 -331 11 -21 34 -49 52 -62 33 -23 35 -23 373 -26 339 -3 340
-3 384 20 81 43 81 45 81 431 0 377 -1 384 -66 433 l-37 29 -179 3 c-186 4
-208 0 -208 -38 0 -10 7 -21 16 -24 9 -3 91 -6 184 -6 l168 0 31 -36 32 -36
-3 -330 -3 -330 -28 -24 -28 -24 -330 0 c-218 0 -337 4 -351 11 -42 23 -48 62
-48 341 0 150 5 279 10 300 21 74 89 128 163 128 18 0 42 6 53 14 45 34 -34
69 -106 47z"/>
<path d="M1470 2718 c-87 -45 -85 -32 -88 -431 -3 -402 -3 -401 79 -445 44
-23 45 -23 384 -20 338 3 340 3 373 26 18 13 41 41 52 62 19 36 20 60 20 331
0 192 -4 305 -12 330 -16 55 -73 118 -132 145 -50 23 -58 24 -341 24 -282 0
-292 -1 -335 -22z m653 -62 c42 -17 83 -66 97 -114 5 -21 10 -150 10 -300 0
-279 -6 -318 -48 -341 -14 -7 -133 -11 -351 -11 l-330 0 -28 24 -28 24 -3 333
-3 332 33 34 32 33 293 0 c225 0 301 -3 326 -14z"/>
<path d="M1762 2540 c-20 -12 -41 -37 -50 -60 -13 -30 -23 -40 -40 -40 -33 0
-76 -24 -106 -60 -20 -25 -26 -42 -26 -80 0 -29 -6 -52 -14 -60 -8 -6 -22 -31
-31 -54 -13 -35 -14 -51 -6 -82 14 -49 27 -66 71 -93 30 -18 51 -21 137 -21
98 0 102 -1 105 -22 5 -34 55 -38 60 -6 3 22 7 23 113 28 115 6 135 12 174 54
46 49 38 163 -13 205 -11 9 -16 30 -16 63 0 43 -4 54 -34 84 -22 22 -47 35
-73 40 -34 5 -42 11 -52 40 -6 18 -26 44 -42 59 -39 32 -108 34 -157 5z m118
-65 c13 -13 26 -42 29 -62 l6 -38 59 -5 c80 -7 108 -48 70 -104 -16 -26 -17
-25 37 -66 53 -39 45 -110 -16 -135 -48 -21 -178 -20 -195 1 -11 13 -4 24 49
78 51 51 62 68 56 85 -9 29 -46 27 -75 -4 -29 -31 -40 -24 -40 26 0 26 -5 42
-15 45 -25 10 -45 -16 -45 -57 0 -46 -8 -48 -40 -14 -30 32 -64 30 -68 -4 -3
-18 10 -38 54 -82 80 -81 73 -92 -50 -87 -84 3 -97 6 -120 27 -37 35 -35 81 5
115 17 14 35 26 40 26 14 0 11 34 -5 66 -10 19 -12 33 -5 45 14 27 29 33 89
39 l55 5 6 44 c10 76 73 105 119 56z"/>
<path d="M588 2512 l-108 -108 0 -58 0 -58 178 -179 177 -179 48 0 c26 0 60 6
75 14 29 16 169 155 196 196 21 31 21 98 0 130 -27 41 -307 320 -336 336 -15
8 -48 14 -75 14 -47 0 -48 -1 -155 -108z m180 36 c7 -9 -7 -56 -50 -163 -33
-82 -64 -154 -69 -160 -14 -15 -97 74 -105 112 -6 31 -1 39 77 119 96 99 126
117 147 92z m123 -99 c26 -26 39 -46 36 -57 -7 -21 -89 -234 -110 -284 -9 -21
-20 -38 -24 -38 -5 0 -28 19 -51 43 l-43 44 67 166 c36 92 70 167 75 167 4 0
27 -18 50 -41z m159 -158 c57 -58 66 -80 46 -118 -25 -49 -171 -183 -199 -183
-40 0 -48 19 -28 75 44 130 107 275 119 275 8 0 35 -22 62 -49z"/>
<path d="M460 1708 c-31 -16 -51 -36 -67 -67 l-23 -44 0 -495 c0 -346 3 -506
12 -533 16 -55 73 -118 132 -145 l51 -24 765 0 765 0 51 24 c59 27 116 90 132
145 9 27 12 187 12 533 l0 495 -23 44 c-32 61 -88 89 -178 89 -74 0 -102 -17
-82 -48 7 -13 30 -18 86 -22 67 -4 80 -9 104 -33 l28 -27 3 -481 c2 -314 -1
-493 -8 -519 -13 -49 -54 -99 -97 -116 -48 -21 -1538 -21 -1586 0 -43 17 -84
67 -97 116 -7 26 -10 205 -8 519 l3 481 28 27 27 28 693 5 692 5 0 30 0 30
-685 3 -685 2 -45 -22z"/>
<path d="M906 1589 c-34 -18 -44 -19 -83 -10 -82 21 -161 -23 -197 -111 -9
-20 -24 -39 -35 -43 -11 -3 -36 -24 -55 -45 -33 -37 -36 -45 -36 -101 0 -33 5
-69 10 -80 8 -14 7 -25 -5 -41 -20 -29 -20 -145 0 -172 12 -16 12 -22 0 -47
-19 -36 -19 -102 -1 -138 16 -30 80 -91 96 -91 6 0 10 -11 10 -23 0 -13 9 -32
20 -42 18 -17 22 -17 36 -4 11 12 13 27 7 69 -7 48 -11 54 -38 63 -17 5 -40
19 -53 30 -30 28 -30 96 -1 137 l22 29 -27 31 c-35 42 -35 97 -1 138 30 36 30
40 5 72 -27 34 -27 103 0 130 11 11 32 22 47 26 50 10 53 13 53 40 0 41 29 91
61 104 34 14 91 6 109 -15 17 -21 25 -19 63 15 45 39 93 40 137 4 l31 -26 37
26 c21 14 51 26 67 26 16 0 46 -12 67 -26 l37 -26 31 26 c40 33 85 34 130 1
34 -25 36 -25 82 8 34 25 100 18 133 -13 25 -23 47 -19 75 14 14 18 72 21 101
6 10 -6 26 -25 35 -43 22 -42 31 -47 79 -40 34 4 46 1 73 -22 27 -23 32 -34
32 -70 0 -24 -4 -47 -10 -50 -19 -12 -10 -36 25 -69 29 -28 35 -40 35 -74 0
-22 -5 -44 -10 -47 -6 -3 -17 -19 -25 -34 -13 -27 -13 -31 10 -57 37 -43 34
-97 -7 -137 -31 -30 -33 -36 -33 -101 0 -69 -1 -70 -35 -94 -29 -19 -42 -22
-81 -17 -42 6 -48 4 -54 -14 -9 -31 -63 -71 -94 -71 -16 0 -45 11 -65 25 -32
22 -66 25 -66 6 0 -12 -49 -31 -80 -31 -16 0 -42 11 -58 25 -37 31 -37 31 -74
0 -19 -16 -42 -25 -63 -25 -21 0 -44 9 -63 25 -17 14 -32 25 -35 25 -4 0 -23
-11 -43 -25 -47 -32 -84 -32 -122 0 -38 32 -53 31 -83 -1 -21 -22 -30 -25 -67
-21 -30 3 -53 14 -73 33 l-30 28 -44 -24 c-34 -19 -45 -30 -45 -49 0 -22 3
-23 41 -18 30 4 49 0 73 -14 38 -23 119 -25 159 -4 25 13 31 13 52 -1 19 -12
39 -14 87 -10 79 8 107 8 185 0 47 -4 67 -2 84 10 20 13 25 13 52 0 21 -11 45
-14 86 -10 70 8 100 8 177 0 70 -6 112 9 140 51 13 20 25 25 59 25 82 0 145
65 153 157 3 38 13 70 29 95 22 33 24 44 19 110 -7 97 -7 93 0 173 5 64 4 73
-21 109 -22 32 -25 45 -19 82 12 85 -59 174 -139 174 -31 0 -45 8 -80 44 -53
56 -98 67 -171 42 -47 -16 -54 -16 -81 -2 -39 21 -86 20 -130 -1 -33 -16 -37
-16 -70 0 -44 21 -83 22 -133 2 -34 -14 -42 -14 -75 0 -47 19 -77 19 -128 -1
-38 -16 -43 -16 -75 0 -46 21 -90 20 -138 -5z"/>
<path d="M867 1336 c-42 -43 -33 -158 17 -211 38 -40 85 -47 137 -19 84 43 63
176 -35 218 -62 27 -100 31 -119 12z m107 -91 c37 -34 33 -79 -6 -83 -21 -3
-30 3 -42 27 -37 71 -7 107 48 56z"/>
<path d="M1678 1288 c-18 -25 -24 -50 -27 -105 -3 -69 -2 -74 27 -103 24 -24
39 -30 72 -30 46 0 94 21 104 45 3 9 6 38 6 64 0 56 -27 103 -79 138 -47 32
-75 29 -103 -9z m84 -65 c43 -49 46 -96 7 -106 -24 -7 -59 24 -59 52 0 27 18
71 28 71 5 0 16 -8 24 -17z"/>
<path d="M1223 999 c-82 -40 -104 -122 -50 -185 31 -36 99 -43 144 -15 61 38
100 162 64 204 -20 25 -105 22 -158 -4z m97 -66 c0 -29 -38 -83 -59 -83 -46 0
-53 66 -9 88 36 17 68 15 68 -5z"/>
</g>
</svg>
