<?xml version="1.0" standalone="no"?>
<!DOCTYPE svg PUBLIC "-//W3C//DTD SVG 20010904//EN"
 "http://www.w3.org/TR/2001/REC-SVG-20010904/DTD/svg10.dtd">
<svg version="1.0" xmlns="http://www.w3.org/2000/svg"
 width="166.000000pt" height="207.000000pt" viewBox="0 0 166.000000 207.000000"
 preserveAspectRatio="xMidYMid meet">

<g transform="translate(0.000000,207.000000) scale(0.100000,-0.100000)"
fill="#000000" stroke="none">
<path d="M1346 1977 c-15 -19 -26 -37 -26 -41 0 -9 -69 -116 -87 -134 -7 -7
-13 -19 -13 -26 0 -6 -13 -27 -28 -46 l-28 -33 -28 35 c-15 20 -45 43 -67 52
-22 9 -61 39 -87 68 -76 82 -157 107 -240 73 -40 -17 -112 -82 -112 -100 0
-13 -42 -35 -65 -35 -30 0 -125 -122 -125 -160 0 -11 -12 -26 -27 -34 -56 -29
-93 -88 -93 -149 0 -34 -6 -49 -26 -68 -45 -42 -57 -78 -60 -169 -2 -70 -7
-95 -28 -134 -19 -35 -26 -64 -26 -103 0 -47 -3 -56 -20 -60 -23 -6 -50 -51
-50 -82 0 -20 15 -61 52 -137 24 -52 153 -176 216 -208 39 -20 207 -76 230
-76 36 -1 102 -39 102 -59 0 -26 -7 -30 -95 -51 -133 -32 -168 -48 -192 -83
-28 -41 -29 -61 -3 -87 19 -19 33 -20 410 -20 377 0 391 1 410 20 26 26 25 46
-2 87 -25 35 -60 51 -193 83 -87 21 -95 25 -95 49 0 28 20 39 96 57 124 29
247 80 296 121 72 61 155 153 168 185 7 18 19 47 26 65 8 17 14 41 14 53 0 27
-25 76 -43 83 -7 3 -19 30 -26 60 -6 30 -23 69 -36 88 -19 25 -25 45 -25 85 0
69 -34 177 -69 217 -20 22 -30 47 -34 82 -3 28 -14 65 -24 82 -17 31 -17 32 8
80 25 47 111 185 170 271 41 60 36 92 -18 120 -41 23 -80 15 -107 -21z m90
-31 c5 -14 -49 -131 -64 -138 -12 -5 -52 -64 -52 -78 0 -11 -87 -130 -95 -130
-33 0 -46 38 -20 60 8 7 15 17 15 22 0 5 23 42 50 82 28 40 50 76 50 79 0 4
16 32 36 62 37 55 69 71 80 41z m-545 -77 c14 -6 41 -31 60 -56 23 -31 50 -53
85 -69 57 -25 94 -68 94 -109 0 -26 10 -38 95 -110 38 -32 40 -36 40 -90 0
-50 3 -59 28 -77 39 -28 38 -77 -4 -112 -17 -14 -37 -26 -45 -26 -18 0 -40 37
-48 81 -14 80 -57 133 -103 127 -36 -4 -54 -40 -60 -122 -10 -147 -63 -236
-141 -236 -29 0 -49 7 -73 27 -33 28 -89 133 -89 168 0 32 -36 82 -64 89 -48
12 -108 -36 -136 -108 -19 -52 -116 -58 -160 -11 -30 32 -43 103 -24 132 8 12
14 45 14 72 0 48 1 51 65 106 36 32 65 64 65 72 0 44 79 133 119 133 5 0 35
27 67 60 32 33 71 64 88 70 34 10 86 5 127 -11z m249 -568 c11 -53 22 -79 39
-92 30 -25 97 -25 137 0 42 26 54 12 54 -58 0 -43 6 -63 26 -92 18 -26 26 -52
27 -86 l2 -48 -592 -3 -592 -2 -6 21 c-10 31 4 106 27 144 15 27 18 44 13 75
-7 40 1 100 13 100 4 0 20 -18 36 -39 36 -50 92 -76 146 -68 33 4 49 14 78 48
79 93 89 102 104 97 8 -4 30 -44 47 -90 46 -119 54 -130 103 -156 51 -28 119
-27 183 4 43 21 39 13 76 174 40 175 55 188 79 71z m350 -441 c25 -25 25 -32
-3 -83 -43 -79 -79 -125 -135 -175 -67 -58 -196 -129 -249 -137 -158 -24 -193
-43 -193 -106 0 -58 29 -81 149 -113 128 -35 183 -72 135 -90 -20 -8 -708 -8
-728 0 -47 18 0 49 134 89 129 39 166 67 156 120 -8 43 -47 72 -113 85 -139
26 -144 28 -249 87 -63 35 -168 143 -207 214 -43 77 -45 92 -15 113 20 14 99
16 660 16 625 0 638 0 658 -20z"/>
<path d="M853 1744 c-4 -11 3 -23 21 -36 14 -11 33 -35 41 -54 10 -24 20 -34
35 -34 12 0 38 -16 57 -35 41 -41 53 -44 53 -11 0 30 -51 86 -79 86 -12 0 -24
8 -28 18 -22 62 -85 104 -100 66z"/>
<path d="M588 1603 c-9 -10 -18 -27 -22 -38 -3 -11 -24 -33 -46 -48 -45 -32
-64 -87 -38 -113 24 -24 48 -7 48 35 0 44 14 61 51 61 34 0 35 2 44 68 8 57
-6 70 -37 35z"/>
<path d="M918 1258 c-13 -41 -15 -43 -51 -41 -34 2 -38 0 -35 -20 2 -18 10
-23 43 -25 35 -3 44 1 63 27 28 38 34 94 11 99 -12 2 -21 -9 -31 -40z"/>
<path d="M1132 1098 c-25 -25 -13 -38 34 -38 32 0 51 -5 59 -17 14 -19 35 -9
35 17 0 40 -97 69 -128 38z"/>
<path d="M408 1065 c-32 -18 -38 -55 -9 -55 10 0 24 7 31 15 16 19 37 19 74 0
35 -18 60 -19 87 -2 17 10 22 9 38 -12 21 -27 51 -23 51 7 0 33 -29 47 -99 49
-36 1 -84 4 -106 8 -26 3 -49 0 -67 -10z"/>
<path d="M1284 760 c-11 -4 -32 -23 -46 -42 -23 -30 -57 -50 -151 -87 -45 -18
-22 -34 36 -27 62 9 89 22 150 76 58 52 65 100 11 80z"/>
</g>
</svg>
