<?xml version="1.0" standalone="no"?>
<!DOCTYPE svg PUBLIC "-//W3C//DTD SVG 20010904//EN"
 "http://www.w3.org/TR/2001/REC-SVG-20010904/DTD/svg10.dtd">
<svg version="1.0" xmlns="http://www.w3.org/2000/svg"
 width="220.000000pt" height="170.000000pt" viewBox="0 0 220.000000 170.000000"
 preserveAspectRatio="xMidYMid meet">

<g transform="translate(0.000000,170.000000) scale(0.100000,-0.100000)"
fill="#000000" stroke="none">
<path d="M773 1595 c-45 -47 -44 -83 2 -130 20 -19 45 -35 55 -35 28 0 100 70
100 96 0 12 -17 40 -38 63 -47 52 -75 53 -119 6z m77 -50 c10 -13 10 -19 -5
-35 -18 -20 -18 -20 -32 0 -12 17 -12 24 -3 35 16 19 24 19 40 0z"/>
<path d="M1224 1602 c-46 -60 -47 -66 -6 -116 49 -61 83 -62 130 -4 40 50 40
68 1 113 -40 46 -93 49 -125 7z m85 -79 c-14 -16 -31 -17 -47 -1 -9 9 -8 16 5
30 15 17 17 17 35 2 14 -13 15 -20 7 -31z"/>
<path d="M1012 1428 c-23 -23 -42 -51 -42 -62 0 -22 77 -106 97 -106 16 0 103
91 103 108 0 15 -89 102 -105 102 -7 0 -31 -19 -53 -42z m81 -52 c3 -8 -2 -21
-12 -30 -16 -15 -20 -15 -31 -1 -7 8 -10 22 -6 30 7 19 42 20 49 1z"/>
<path d="M1857 1186 c-45 -47 -110 -114 -145 -150 -35 -36 -66 -66 -71 -66 -4
0 -18 25 -30 56 -43 102 -119 170 -214 190 -103 21 -184 -3 -261 -78 -22 -21
-42 -38 -46 -38 -15 0 -80 72 -80 89 0 22 -20 32 -48 24 -11 -3 -42 0 -69 5
-53 12 -158 -4 -190 -29 -57 -42 -99 -91 -124 -144 -24 -49 -29 -73 -29 -135
l-1 -75 -48 -22 c-26 -13 -51 -23 -55 -23 -15 0 -74 -67 -100 -113 -22 -40
-26 -60 -26 -127 0 -53 -4 -80 -11 -80 -7 0 -35 20 -63 43 -71 61 -93 72 -114
55 -49 -37 -82 -79 -82 -103 0 -28 3 -32 137 -212 51 -68 97 -132 103 -143 10
-19 22 -20 279 -20 237 0 270 2 275 16 3 9 4 20 0 25 -3 5 -118 9 -260 9
l-254 0 -9 24 c-5 13 -17 26 -25 29 -9 4 -16 11 -16 18 0 6 -15 29 -34 52 -19
23 -59 77 -90 120 -55 77 -56 79 -39 102 22 30 43 31 71 5 12 -11 26 -20 31
-20 6 0 14 -6 18 -12 4 -7 29 -30 55 -50 l46 -38 626 0 626 0 0 25 0 25 -111
0 c-120 0 -138 7 -139 56 0 19 7 22 65 27 49 5 80 15 132 45 113 63 180 92
217 92 49 0 70 -40 64 -126 -5 -80 -17 -94 -79 -94 -46 0 -49 -2 -49 -25 0
-24 3 -25 56 -25 53 0 114 23 114 42 0 4 4 8 9 8 6 0 39 20 75 45 75 51 94 54
119 20 17 -24 17 -25 -35 -97 -54 -76 -128 -172 -151 -198 -8 -8 -17 -23 -20
-33 -6 -16 -37 -17 -462 -17 l-455 0 0 -25 0 -25 470 0 c457 0 470 1 480 20 6
11 52 75 103 143 134 180 137 184 137 212 0 16 -12 38 -32 58 -61 60 -62 60
-105 38 -22 -11 -45 -27 -52 -35 -8 -9 -18 -16 -23 -16 -5 0 -16 -7 -25 -15
-24 -25 -33 -8 -33 65 0 79 -26 139 -87 198 -21 22 -31 38 -26 47 5 7 74 81
156 165 142 146 171 190 129 190 -18 0 -172 -153 -172 -170 0 -4 -9 -10 -20
-13 -11 -3 -20 -12 -20 -21 0 -9 -4 -16 -10 -16 -8 0 -46 -37 -99 -98 -16 -19
-26 -23 -50 -17 -25 5 -31 12 -31 33 0 21 37 65 170 202 93 96 169 180 170
186 0 7 -7 15 -16 18 -10 4 -41 -20 -97 -78z m-941 -44 c7 -9 29 -17 50 -19
21 -1 41 -9 46 -17 5 -8 15 -22 23 -30 8 -8 15 -24 15 -35 0 -19 -6 -21 -51
-21 -44 0 -54 -4 -73 -27 -11 -15 -23 -36 -26 -47 -7 -24 -30 -28 -40 -6 -38
82 -26 75 -133 78 -89 2 -97 4 -97 23 0 11 7 22 15 25 8 3 17 15 20 25 8 23
76 61 125 70 49 9 113 -1 126 -19z m542 -5 c23 -12 42 -26 42 -31 0 -4 -13
-24 -30 -43 -27 -31 -30 -40 -30 -104 0 -53 -4 -71 -15 -75 -21 -8 -45 14 -45
40 0 12 -6 31 -14 42 -20 27 -93 25 -135 -5 -23 -17 -42 -21 -78 -19 -41 3
-48 6 -51 26 -2 13 4 34 12 47 9 13 16 31 16 40 0 8 4 15 8 15 5 0 15 11 22
25 7 14 18 25 23 25 5 0 21 9 36 19 49 35 167 34 239 -2z m106 -140 c16 -44
20 -95 10 -134 -4 -16 -14 -23 -31 -23 -33 0 -133 -54 -168 -90 -16 -17 -33
-30 -37 -30 -10 0 -31 16 -56 43 -22 23 -136 77 -162 77 -13 0 -20 7 -20 20 0
17 7 20 43 20 24 0 65 11 95 25 68 32 92 32 92 3 1 -42 33 -68 83 -68 57 0 70
16 75 93 6 111 45 144 76 64z m-757 -69 c17 -35 29 -48 51 -53 47 -10 78 8 97
59 14 36 23 46 41 46 48 0 54 -9 54 -74 l0 -62 -62 -29 c-34 -16 -73 -40 -87
-52 -61 -53 -58 -53 -96 -13 -35 36 -135 90 -168 90 -17 0 -27 7 -31 23 -10
39 -7 105 7 111 6 2 48 4 92 3 l80 -2 22 -47z m-96 -176 c29 -16 54 -33 57
-40 2 -6 -14 -16 -35 -21 -47 -13 -83 -37 -83 -57 0 -24 27 -28 65 -9 20 9 48
15 62 13 l26 -3 0 -105 0 -105 -203 -3 c-218 -3 -230 0 -230 48 0 26 2 27 65
33 68 7 94 16 125 47 17 17 18 21 4 34 -13 14 -19 13 -52 -4 -39 -21 -152 -29
-152 -10 0 22 50 117 73 138 14 13 51 37 84 53 70 36 115 34 194 -9z m466 11
c95 -46 94 -54 -7 -94 -41 -17 -79 -34 -85 -39 -5 -4 -35 -22 -67 -39 -42 -23
-69 -31 -107 -31 -50 0 -51 0 -51 31 0 56 56 129 126 164 85 43 115 44 191 8z
m489 -3 c80 -39 94 -55 57 -64 -14 -4 -45 -16 -67 -27 -22 -10 -44 -19 -49
-19 -5 0 -23 -10 -40 -22 -63 -45 -121 -67 -174 -68 -62 0 -66 10 -34 82 22
51 50 78 112 112 84 44 114 45 195 6z m-382 -233 l2 -107 -211 2 -210 3 -3 36
-3 36 62 6 c41 5 81 18 123 40 33 19 70 38 81 44 11 6 38 20 60 32 22 11 53
20 69 19 l28 -3 2 -108z"/>
<path d="M820 1101 c0 -25 48 -57 63 -42 7 7 7 18 -1 36 -14 31 -62 36 -62 6z"/>
<path d="M1327 1113 c-12 -12 -7 -36 11 -49 42 -32 82 1 44 37 -22 19 -43 24
-55 12z"/>
<path d="M1195 1050 c-19 -21 -14 -50 8 -50 21 0 50 37 44 55 -9 21 -30 19
-52 -5z"/>
<path d="M573 734 c-7 -18 20 -44 44 -44 20 0 27 28 13 45 -17 20 -49 19 -57
-1z"/>
<path d="M484 702 c-6 -4 -16 -17 -22 -28 -9 -18 -8 -25 4 -35 14 -11 20 -9
41 15 19 22 21 31 12 42 -13 16 -19 17 -35 6z"/>
<path d="M1080 720 c0 -27 34 -44 50 -25 18 21 5 45 -25 45 -18 0 -25 -5 -25
-20z"/>
<path d="M988 699 c-24 -14 -25 -72 -2 -67 9 2 26 16 38 31 18 24 19 29 6 37
-18 12 -21 12 -42 -1z"/>
<path d="M1560 726 c0 -7 11 -21 24 -29 21 -14 26 -14 36 -2 7 8 10 22 6 30
-7 19 -66 21 -66 1z"/>
<path d="M1436 676 c-18 -29 -12 -56 14 -56 26 0 55 47 39 66 -17 21 -35 17
-53 -10z"/>
<path d="M283 1020 c-24 -26 -43 -53 -43 -60 0 -16 88 -100 104 -100 26 1 96
79 96 107 0 20 -80 103 -99 102 -9 -1 -35 -22 -58 -49z m78 -69 c-14 -26 -27
-27 -40 -4 -7 13 -5 23 7 36 13 15 18 16 30 3 11 -11 11 -18 3 -35z"/>
<path d="M1877 846 c-32 -37 -47 -58 -47 -68 0 -10 94 -98 106 -98 18 0 94 80
94 100 0 11 -17 37 -37 60 -46 50 -77 52 -116 6z m74 -83 c-16 -21 -16 -21
-35 -3 -19 18 -19 20 -2 39 16 18 19 18 35 3 16 -16 16 -19 2 -39z"/>
</g>
</svg>
