<?xml version="1.0" standalone="no"?>
<!DOCTYPE svg PUBLIC "-//W3C//DTD SVG 20010904//EN"
 "http://www.w3.org/TR/2001/REC-SVG-20010904/DTD/svg10.dtd">
<svg version="1.0" xmlns="http://www.w3.org/2000/svg"
 width="304.000000pt" height="192.000000pt" viewBox="0 0 304.000000 192.000000"
 preserveAspectRatio="xMidYMid meet">

<g transform="translate(0.000000,192.000000) scale(0.100000,-0.100000)"
fill="#000000" stroke="none">
<path d="M1037 1630 c-29 -25 -46 -55 -77 -136 -6 -16 -23 -25 -62 -34 -207
-46 -402 -139 -519 -248 -108 -101 -143 -168 -144 -272 0 -107 32 -171 133
-270 122 -118 295 -200 547 -260 528 -125 1170 -60 1540 156 103 61 207 163
242 241 41 87 39 176 -5 265 -60 122 -202 235 -394 313 -69 28 -85 39 -93 62
-34 98 -89 128 -277 153 -507 67 -540 69 -611 34 -17 -9 -42 -27 -53 -41 l-22
-26 -44 47 c-39 40 -50 46 -86 46 -31 0 -49 -7 -75 -30z m116 -88 c13 -22 20
-54 21 -90 l1 -57 -50 -6 c-27 -3 -58 -9 -67 -13 -16 -7 -18 -1 -18 53 0 57
14 103 43 139 17 21 50 9 70 -26z m360 24 c53 -19 79 -45 75 -75 -9 -79 -255
-54 -266 27 -8 50 104 78 191 48z m392 -43 c138 -18 160 -25 197 -60 32 -31
25 -53 -22 -73 -32 -13 -100 -11 -295 10 -142 16 -139 15 -124 42 6 11 11 41
11 65 l-1 43 57 -5 c31 -3 111 -13 177 -22z m-519 -153 c25 -10 26 -12 11 -27
-14 -14 -22 -14 -61 -3 -46 13 -57 24 -33 33 21 9 55 7 83 -3z m237 -61 c21
-5 52 -23 70 -39 30 -27 31 -30 16 -45 -16 -16 -24 -15 -123 20 -58 21 -106
41 -106 46 0 27 77 37 143 18z m-354 -35 c177 -60 241 -87 241 -101 0 -7 -3
-13 -7 -13 -5 -1 -46 -2 -93 -4 -47 -1 -95 -8 -108 -15 -46 -25 -197 42 -239
106 -16 25 -16 26 6 44 34 28 81 24 200 -17z m-319 -88 c0 -41 -5 -68 -13 -75
-27 -21 -144 -46 -173 -36 -90 32 -31 112 116 159 70 23 70 23 70 -48z m973
34 c10 -39 -19 -120 -44 -120 -5 0 -17 8 -27 18 -10 10 -29 26 -41 34 -29 21
-23 41 21 68 43 26 84 26 91 0z m600 -89 c87 -80 118 -183 83 -275 -18 -46
-101 -135 -170 -182 -154 -105 -447 -192 -721 -215 -589 -48 -1142 93 -1329
340 -35 47 -41 61 -44 116 -6 90 10 128 88 206 66 65 130 110 130 90 0 -6 -10
-30 -22 -53 -17 -32 -23 -60 -23 -110 0 -77 14 -102 91 -160 46 -35 49 -41 46
-77 -8 -92 51 -134 181 -130 73 2 87 -1 127 -24 69 -39 153 -59 257 -61 88 -1
95 -3 116 -28 58 -68 150 -64 230 11 l28 26 197 0 c194 0 198 0 272 29 233 92
430 277 430 406 0 45 -22 88 -71 144 l-44 50 60 -38 c33 -21 73 -50 88 -65z
m-428 75 c76 -17 105 -29 133 -55 70 -67 -34 -113 -174 -76 -31 8 -59 17 -61
19 -9 9 20 126 31 126 6 -1 38 -7 71 -14z m-1045 -76 c0 -5 -4 -10 -10 -10 -5
0 -10 5 -10 10 0 6 5 10 10 10 6 0 10 -4 10 -10z m656 -15 c51 -15 118 -68
111 -88 -2 -7 -37 -18 -78 -25 -71 -13 -76 -13 -115 8 -40 21 -54 46 -54 96 0
25 66 30 136 9z m-225 -45 c29 -16 23 -42 -18 -82 -62 -58 -166 -78 -213 -40
-19 16 -20 20 -9 45 13 29 61 63 107 77 39 12 110 12 133 0z m-331 -97 c0 -16
9 -41 20 -58 24 -37 25 -41 3 -48 -10 -3 -84 -28 -165 -56 -190 -66 -278 -69
-278 -10 0 29 74 85 141 108 35 12 109 37 164 56 55 19 103 34 108 35 4 0 7
-12 7 -27z m1165 3 c27 -12 35 -21 35 -40 0 -41 -60 -74 -156 -86 -43 -6 -117
-17 -164 -25 -127 -22 -130 -22 -123 20 4 24 0 43 -12 61 -9 14 -15 27 -13 29
3 3 225 41 283 48 68 9 118 6 150 -7z m-504 -93 c28 -27 13 -55 -44 -85 -113
-58 -272 -2 -194 69 34 32 76 43 150 40 53 -2 72 -7 88 -24z m-292 -144 l44
-40 -20 -27 c-59 -81 -153 -96 -153 -25 0 38 57 134 79 133 3 -1 26 -19 50
-41z"/>
</g>
</svg>
